Coordinates
version=1
nRows=38
nColumns=12
inDegrees=yes

Units are S.I. units (second, meters, Newtons, ...)
Angles are in degrees

endheader
time	SC_y	SC_z	SC_x	AC_y	AC_z	AC_x	GH_y	GH_z	GH_yy	EL_x	PS_y
       0.0              -18.74          29.34         0.5478          36.05          -2.24         -7.469         -59.96           5.18          172.3          87.41          108.6
   0.01661              -18.74          29.34         0.5539          36.05         -2.242         -7.467         -59.96          5.186          172.3          87.41          108.6
   0.03321              -18.75          29.34         0.5605          36.05         -2.244         -7.465         -59.97          5.192          172.3          87.41          108.6
   0.04982              -18.75          29.34         0.5675          36.06         -2.247         -7.462         -59.97          5.198          172.2          87.42          108.6
   0.06643              -18.76          29.34         0.5749          36.06          -2.25          -7.46         -59.97          5.205          172.2          87.42          108.6
   0.08304              -18.76          29.34         0.5829          36.07         -2.253         -7.457         -59.97          5.212          172.2          87.43          108.6
   0.09964              -18.77          29.34         0.5914          36.08         -2.256         -7.454         -59.98           5.22          172.2          87.44          108.6
    0.1163              -18.77          29.34         0.6004          36.08         -2.259         -7.451         -59.98          5.229          172.2          87.44          108.6
    0.1329              -18.78          29.34         0.6101          36.09         -2.262         -7.447         -59.99          5.238          172.2          87.45          108.6
    0.1495              -18.79          29.34         0.6205           36.1         -2.266         -7.444         -59.99          5.247          172.2          87.46          108.7
    0.1661               -18.8          29.33         0.6317           36.1          -2.27          -7.44         -59.99          5.258          172.2          87.46          108.7
    0.1827               -18.8          29.33         0.6437          36.11         -2.274         -7.436          -60.0          5.269          172.1          87.47          108.7
    0.1993              -18.81          29.33         0.6567          36.12         -2.279         -7.431          -60.0          5.281          172.1          87.48          108.7
    0.2159              -18.82          29.33         0.6707          36.13         -2.284         -7.426         -60.01          5.294          172.1          87.49          108.7
    0.2325              -18.83          29.33         0.6858          36.14          -2.29         -7.421         -60.02          5.308          172.1           87.5          108.7
    0.2491              -18.84          29.33         0.7023          36.15         -2.296         -7.415         -60.02          5.323          172.0          87.51          108.7
    0.2657              -18.85          29.33         0.7201          36.16         -2.302         -7.409         -60.03           5.34          172.0          87.53          108.7
    0.2823              -18.87          29.32         0.7396          36.18         -2.309         -7.403         -60.04          5.358          172.0          87.54          108.8
    0.2989              -18.88          29.32         0.7609          36.19         -2.317         -7.395         -60.05          5.377          172.0          87.55          108.8
    0.3155               -18.9          29.32         0.7841          36.21         -2.325         -7.387         -60.06          5.399          171.9          87.57          108.8
    0.3321              -18.91          29.32         0.8097          36.22         -2.334         -7.378         -60.07          5.423          171.9          87.59          108.8
    0.3488              -18.93          29.31         0.8378          36.24         -2.344         -7.369         -60.08          5.449          171.8          87.61          108.9
    0.3654              -18.95          29.31         0.8688          36.26         -2.356         -7.358         -60.09          5.478          171.8          87.63          108.9
     0.382              -18.98          29.31         0.9032          36.29         -2.368         -7.346         -60.11          5.509          171.7          87.65          108.9
    0.3986               -19.0           29.3         0.9415          36.31         -2.382         -7.333         -60.12          5.545          171.7          87.68          109.0
    0.4152              -19.03           29.3         0.9842          36.34         -2.397         -7.318         -60.14          5.584          171.6          87.71          109.0
    0.4318              -19.06          29.29          1.032          36.37         -2.415         -7.301         -60.16          5.629          171.6          87.74          109.0
    0.4484               -19.1          29.29          1.086          36.41         -2.434         -7.283         -60.18          5.679          171.5          87.78          109.1
     0.465              -19.14          29.28          1.147          36.45         -2.456         -7.262          -60.2          5.735          171.4          87.82          109.1
    0.4816              -19.19          29.27          1.216           36.5         -2.481         -7.238         -60.23          5.799          171.3          87.87          109.2
    0.4982              -19.24          29.26          1.294          36.55         -2.509         -7.211         -60.26          5.872          171.2          87.92          109.3
    0.5148               -19.3          29.25          1.385          36.61         -2.542         -7.179          -60.3          5.956          171.0          87.99          109.4
    0.5314              -19.37          29.24          1.489          36.68         -2.579         -7.143         -60.34          6.052          170.9          88.06          109.5
     0.548              -19.45          29.23           1.61          36.76         -2.623         -7.101         -60.39          6.165          170.7          88.14          109.6
    0.5646              -19.54          29.22          1.752          36.86         -2.674         -7.052         -60.45          6.296          170.5          88.24          109.7
    0.5813              -19.66           29.2          1.919          36.97         -2.735         -6.995         -60.52          6.451          170.2          88.36          109.9
    0.5979              -19.79          29.18          2.118          37.11         -2.806         -6.926          -60.6          6.636          169.9           88.5          110.1
    0.6145              -19.95          29.15          2.356          37.27         -2.892         -6.843          -60.7          6.857          169.6          88.66          110.3
